<svg width="114" height="65" viewBox="0 0 114 65" fill="none" xmlns="http://www.w3.org/2000/svg">
<g clip-path="url(#clip0_66_599)">
<path fill-rule="evenodd" clip-rule="evenodd" d="M80.0169 53.0684L103.944 27.2605V53.0684H80.0169ZM104.031 0.7598L55.396 53.0684H73.2548L103.944 19.9858V0.7598H104.031ZM26.9612 13.6637L60.4242 13.5771L72.3879 0.673218H27.308C27.2213 0.673218 27.1346 0.673218 26.9612 0.673218C20.8928 0.673218 15.3445 2.5785 10.8365 5.86944C4.24791 10.6326 0 18.2537 0 26.8275C0 32.7165 1.99391 38.1725 5.46161 42.5027C7.80227 45.5338 10.7498 47.9587 14.2174 49.7774C17.0783 51.5961 20.4593 52.7219 24.1004 52.8951H26.8745C26.9612 52.8951 26.9612 52.8951 27.0479 52.8951C27.1345 52.8951 27.2213 52.8951 27.308 52.8951H48.8075L60.0775 40.6841L79.4967 19.726V0.5L42.7391 40.0778H26.5277C22.3665 39.9046 18.6387 37.9993 16.2114 34.9682C14.3908 32.7165 13.2639 29.8586 13.2639 26.8275C13.2639 22.0643 15.9513 17.8207 19.8524 15.4824C21.9331 14.3565 24.3604 13.6637 26.9612 13.6637ZM101.777 6.38901L64.3257 46.7463H70.0469L98.9154 15.7422L101.777 6.38901ZM13.784 11.8451L13.3505 12.1915L12.9171 12.5379L12.4836 12.9709L12.0502 13.4039L11.6167 13.837L11.27 14.27L10.9232 14.703L10.5764 15.136L10.2297 15.569L9.88285 16.002L9.53613 16.435L9.27599 16.9547L9.01591 17.4743L8.75589 17.9939L8.49581 18.5135L8.23573 19.0332L7.9756 19.5528L7.80227 20.0724L7.62888 20.5921L7.45549 21.1116L7.28211 21.6313L7.10872 22.1509L6.93534 22.6705L6.84864 23.2767L6.76195 23.8829L6.67526 24.4892L6.58856 25.0954L6.50192 25.7017V26.3078V26.3945C5.28821 27.9533 3.90112 28.6461 2.25397 28.2997C2.16728 27.0007 2.25395 26.1347 2.34064 24.749L2.42737 24.0562L2.51403 23.3633L2.60076 22.6705L2.7741 21.9777L2.9475 21.2849L3.12089 20.5921L3.29429 19.8992L3.55435 19.2063L3.81442 18.5135L4.07448 17.9073L4.3346 17.3011L4.59467 16.6949L4.9414 16.0886L5.28819 15.4824L5.63499 14.8762L5.98171 14.27L6.32848 13.6637L6.76195 13.0575L7.19542 12.5379L7.62888 12.0182L8.06235 11.4987L8.49581 10.979L9.01591 10.4594L9.53613 9.93979L10.0562 9.50677L10.5764 9.07376L11.0965 8.64075L11.6167 8.20773L12.2236 7.77467L12.5703 7.51488L13.0038 7.25504L13.4373 6.99525L13.8707 6.73547L14.3042 6.47563L14.7377 6.21584L15.1711 5.956L15.6046 5.69621L16.038 5.43641L16.4715 5.2632L16.9049 5.08998L17.3384 4.91678L17.7719 4.74357L18.2053 4.57038L18.6388 4.39716L19.0723 4.22394L19.5057 4.05075L19.9392 3.87753L20.3726 3.70434L20.8928 3.61773L21.4129 3.53113L21.9331 3.44452L22.4532 3.3579L22.9734 3.27132L23.4935 3.18471L24.0136 3.09811L24.5338 3.0115L25.054 2.92489H25.5741H26.0943H26.6144H27.1346H27.2212H27.308H27.4813H67.4461L58.517 7.16848H26.5277H26.4411C23.927 7.34171 21.5863 7.77467 19.419 8.64075H19.3323L18.9855 8.81392L18.6388 8.98715L18.292 9.16037L17.9452 9.33355L17.5985 9.50677L17.2517 9.68L16.9049 9.85317L16.5582 10.0264L16.2114 10.1996L15.8646 10.3728L15.5178 10.6326L15.1711 10.8924L14.8243 11.1522L14.3042 11.4987L13.784 11.8451ZM11.0965 25.7883V26.9141V27.6069L11.1832 28.2997L11.27 28.9925L11.3566 29.6854L11.4433 30.2916L11.6167 30.8979L11.7901 31.5041L11.9635 32.1103L12.2236 32.7165L12.4836 33.3227L12.7437 33.929L13.0038 34.4486L13.3505 34.9682L13.6973 35.4878L14.0441 36.0075L14.4775 36.5271L14.9977 37.1333L15.6046 37.7395L16.2114 38.3458L16.8182 38.8653L17.5117 39.385L18.2053 39.9046L18.8989 40.3376L19.6791 40.7707L20.4593 41.1171L21.2395 41.4635L22.0198 41.7233L22.8866 41.9831L23.7536 42.1563L24.6205 42.3295L25.4874 42.4161C31.3825 42.7625 37.5376 42.5027 43.606 42.5027L77.1557 6.38901L74.4685 15.7422L45.6866 46.6597H25.4874H25.4007C20.1125 46.1401 15.5178 43.8018 11.8768 39.9912L11.1832 39.2118L10.6631 38.5189L10.2297 37.8261L9.79621 37.1333L9.36274 36.4405L9.01591 35.7476L8.6692 35.0548L8.32242 34.2754L8.06235 33.4959L7.80227 32.7165L7.54219 31.9371L7.3688 31.1577L7.19542 30.2916L7.10872 29.4256L7.02203 28.5595L6.93534 27.6935V27.5203C7.88896 26.2213 9.36274 25.7017 11.0965 25.7883ZM96.3146 46.7463L101.69 32.9763L88.8596 46.7463H96.3146ZM98.4822 59.9965H101.603C101.777 59.9965 101.863 59.9965 101.95 60.0835C102.036 60.1699 102.036 60.2563 102.036 60.3432C102.036 60.516 102.036 60.6029 101.95 60.6029C101.863 60.6893 101.777 60.6893 101.603 60.6893H98.4822V59.9965ZM96.7484 58.6109V64.3267H102.123C102.73 64.3267 103.25 64.2403 103.51 63.9805C103.77 63.7208 103.944 63.2877 103.944 62.7677C103.944 62.0749 103.684 61.6419 103.164 61.3821C103.337 61.2957 103.51 61.2088 103.597 60.9491C103.684 60.7763 103.77 60.516 103.77 60.1699C103.77 59.4771 103.597 59.044 103.164 58.7843C102.903 58.6109 102.47 58.5245 101.95 58.5245H96.7484V58.6109ZM98.4822 62.0749H101.516C101.69 62.0749 101.777 62.0749 101.863 62.1619C101.95 62.2483 102.036 62.3347 102.036 62.508C102.036 62.7677 101.863 62.9411 101.516 62.9411H98.4822V62.0749ZM91.2864 64.4136V58.6973H93.0203V64.4136H91.2864ZM87.1257 58.6109V64.3267H85.3918V60.0835H82.2709C82.2709 61.7288 82.0975 62.8547 81.8372 63.5475C81.5773 64.0669 81.1436 64.4136 80.537 64.4136H79.6701V62.9411C80.1033 62.9411 80.3636 62.7677 80.3636 62.4216C80.4501 62.0749 80.4501 60.8627 80.4501 58.6973H87.1257V58.6109ZM68.6598 64.4136V58.6973H75.2485V60.0835H70.3937V60.8627H73.9484C74.5549 60.8627 74.9887 61.036 75.3354 61.2957C75.5953 61.5555 75.7686 61.9885 75.7686 62.5949C75.7686 63.2877 75.5953 63.8072 75.2485 64.0669C74.9887 64.3267 74.5549 64.4136 73.9484 64.4136H68.6598ZM70.4806 62.0749V62.9411H73.5146C73.8614 62.9411 74.0348 62.7677 74.0348 62.508C74.0348 62.3347 74.0348 62.1619 73.9484 62.1619C73.8614 62.0749 73.775 62.0749 73.6016 62.0749H70.4806ZM58.3436 64.4136V58.6973H64.4991V60.0835H60.0775V60.8627H64.3257V62.2483H60.0775V63.028H64.4991V64.4136H58.3436ZM44.8197 58.6973V64.4136H46.5536V60.4296C46.5536 60.3432 46.5536 60.3432 46.5536 60.2563C46.5536 60.0835 46.4669 59.9965 46.4669 59.9965C46.4669 59.9965 46.4669 59.9101 46.5536 59.9101C46.5536 59.9101 46.6403 59.9101 46.6403 59.9965C46.6403 60.0835 46.727 60.0835 46.727 60.1699L48.8943 64.4136H50.3681L52.4487 60.1699C52.4487 60.0835 52.5353 60.0835 52.5353 59.9965C52.5353 59.9101 52.622 59.9101 52.622 59.9101C52.622 59.9101 52.7087 59.9101 52.7087 59.9965C52.7087 59.9965 52.7087 60.0835 52.7087 60.1699C52.7087 60.2563 52.7087 60.3432 52.7087 60.4296V64.4136H54.4427V58.6973H51.4083L49.9346 61.9021C49.9346 62.0749 49.8479 62.2483 49.8479 62.4216C49.8479 62.508 49.848 62.5949 49.7613 62.5949C49.7613 62.5949 49.6745 62.508 49.6745 62.2483C49.6745 62.0749 49.5878 61.9021 49.5878 61.9021L48.114 58.6973H44.8197ZM29.9954 60.1699V58.6973H36.8441V60.1699H34.33V64.4136H32.5962V60.1699H29.9954ZM24.6205 64.4136V58.6973H26.3544V64.4136H24.6205ZM15.4311 59.9965H18.552C18.7254 59.9965 18.8122 59.9965 18.8989 60.0835C18.9856 60.1699 18.9855 60.2563 18.9855 60.3432C18.9855 60.516 18.9856 60.6029 18.8989 60.6029C18.8122 60.6893 18.7254 60.6893 18.552 60.6893H15.4311V59.9965ZM13.6973 58.6109V64.3267H19.0723C19.6791 64.3267 20.1992 64.2403 20.4593 63.9805C20.7194 63.7208 20.8928 63.2877 20.8928 62.7677C20.8928 62.0749 20.6327 61.6419 20.1125 61.3821C20.2859 61.2957 20.4593 61.2088 20.546 60.9491C20.6327 60.7763 20.7194 60.516 20.7194 60.1699C20.7194 59.4771 20.546 59.044 20.1992 58.7843C19.9391 58.6109 19.5057 58.5245 18.9855 58.5245H13.6973V58.6109ZM15.4311 62.0749H18.4654C18.6388 62.0749 18.7254 62.0749 18.8121 62.1619C18.8988 62.2483 18.9855 62.3347 18.9855 62.508C18.9855 62.7677 18.8122 62.9411 18.4654 62.9411H15.4311V62.0749ZM6.32848 58.5245C7.97565 58.5245 9.01597 58.6973 9.36274 58.9576C9.70951 59.2173 9.88285 59.8232 9.88285 60.8627H8.14904C8.14904 60.516 8.06234 60.3432 7.88896 60.2563C7.62888 60.1699 7.19541 60.0835 6.41518 60.0835C5.54825 60.0835 5.02812 60.1699 4.85473 60.2563C4.68135 60.4296 4.59467 60.7763 4.59467 61.5555C4.59467 62.2483 4.68135 62.6813 4.85473 62.8547C5.02812 63.028 5.54825 63.028 6.41518 63.028C7.19541 63.028 7.71557 62.9411 7.88896 62.8547C8.06234 62.7677 8.14904 62.508 8.14904 62.1619H9.88285C9.88285 63.2008 9.70951 63.8072 9.36274 64.0669C9.01597 64.3267 7.97565 64.5 6.32848 64.5C4.68136 64.5 3.64105 64.3267 3.29429 64.0669C2.94752 63.8072 2.7741 62.9411 2.7741 61.5555C2.7741 60.1699 2.94752 59.3907 3.29429 59.044C3.72775 58.6973 4.68136 58.5245 6.32848 58.5245ZM114 4.83018V5.2632L113.914 5.69621L113.827 6.12923L113.653 6.47563L113.48 6.82203L113.306 7.16848L113.047 7.51488L112.786 7.86128L112.44 8.12112L112.093 8.38091L111.746 8.55413L111.399 8.72736L111.052 8.90053L110.619 8.98715L110.186 9.07376H109.752H109.319L108.885 8.98715L108.452 8.90053L108.105 8.72736L107.758 8.55413L107.411 8.38091L107.065 8.12112L106.718 7.86128L106.458 7.51488L106.198 7.16848L106.024 6.82203L105.851 6.47563L105.677 6.12923L105.591 5.69621L105.504 5.2632V4.83018V4.39716L105.591 3.96414L105.677 3.53113L105.851 3.18471L106.024 2.8383L106.198 2.49187L106.458 2.14546L106.718 1.79905L107.065 1.53925L107.411 1.27942L107.758 1.10623L108.105 0.933018L108.452 0.7598L108.885 0.673218L109.319 0.586609H109.752H110.186L110.619 0.673218L111.052 0.7598L111.399 0.933018L111.746 1.10623L112.093 1.27942L112.44 1.53925L112.786 1.79905L113.047 2.14546L113.306 2.49187L113.48 2.8383L113.653 3.18471L113.827 3.53113L113.914 3.96414L114 4.39716V4.83018ZM113.306 4.83018V4.48377L113.219 4.13736L113.133 3.79092L113.047 3.44452L112.873 3.18471L112.7 2.92489L112.526 2.66509L112.266 2.40529L112.006 2.14546L111.746 1.97227L111.486 1.79905L111.226 1.62583L110.879 1.53925L110.532 1.45265L110.186 1.36604H109.839H109.492L109.145 1.45265L108.798 1.53925L108.452 1.62583L108.192 1.79905L107.931 1.97227L107.672 2.14546L107.411 2.40529L107.152 2.66509L106.978 2.92489L106.805 3.18471L106.631 3.44452L106.544 3.79092L106.458 4.13736L106.371 4.48377V4.83018V5.17659L106.458 5.52299L106.544 5.86944L106.631 6.21584L106.805 6.47563L106.978 6.73547L107.152 6.99525L107.411 7.25504L107.672 7.51488L107.931 7.68811L108.192 7.86128L108.452 8.03451L108.798 8.12112L109.145 8.20773L109.492 8.29429H109.839H110.186L110.532 8.20773L110.879 8.12112L111.226 8.03451L111.486 7.86128L111.746 7.68811L112.006 7.51488L112.266 7.25504L112.526 6.99525L112.7 6.73547L112.873 6.47563L113.047 6.21584L113.133 5.86944L113.219 5.52299L113.306 5.17659V4.83018ZM111.746 3.09811L111.833 3.18471L111.919 3.27132V3.3579V3.53113V3.70434V3.87753V4.05075V4.22394L111.833 4.31055L111.746 4.39716L111.659 4.48377L111.573 4.57038L111.486 4.65696L111.399 4.74357L111.313 4.83018L111.226 4.91678L111.139 5.00339H111.052H110.966V5.08998V5.17659L111.052 5.2632L111.139 5.3498L111.226 5.43641L111.313 5.52299L111.399 5.60961L111.486 5.69621L111.573 5.78282L111.659 5.86944V5.956V6.04261V6.12923V6.21584L112.18 7.25504H111.139L110.706 6.47563L110.619 6.30245L110.532 6.12923L110.446 5.956L110.359 5.78282L110.272 5.69621L110.186 5.60961L110.099 5.52299H110.012H109.925H109.839H109.752H109.665H109.579H109.492H109.406H109.232H108.972V7.42827H108.105V2.8383H109.925H110.186H110.359H110.532H110.706L110.879 2.92489L111.052 3.0115L111.226 3.09811L111.313 3.18471L111.399 3.27132L111.486 3.3579L111.746 3.09811ZM109.058 3.09811V4.31055H109.492H109.665H109.839H110.012H110.186H110.359H110.446H110.532H110.619V4.22394V4.13736V4.05075V3.96414V3.87753V3.79092V3.70434V3.61773H110.532H110.446H110.359H110.272H110.099H109.925H109.752H109.492H109.058V3.09811Z" fill="#1D1D1D"/>
</g>
<defs>
<clipPath id="clip0_66_599">
<rect width="114" height="64" fill="white" transform="translate(0 0.5)"/>
</clipPath>
</defs>
</svg>
