<svg width="45" height="24" viewBox="0 0 45 24" fill="none" xmlns="http://www.w3.org/2000/svg">
<path d="M0.515587 13.2559L0.517172 13.2575L9.70209 22.4834C10.3902 23.1745 11.5031 23.1719 12.1881 22.4773C12.8729 21.7829 12.8703 20.6595 12.1822 19.9682L6.01543 13.7742H43.2422C44.2131 13.7742 45 12.9799 45 12C45 11.0201 44.2131 10.2258 43.2422 10.2258H6.01552L12.1821 4.03173C12.8702 3.34051 12.8728 2.21718 12.188 1.52268C11.5031 0.827985 10.39 0.825591 9.702 1.51664L0.517084 10.7424L0.515498 10.7441C-0.172946 11.4377 -0.170748 12.5646 0.515587 13.2559Z" fill="#1D1D1D"/>
</svg>
