<svg width="45" height="24" viewBox="0 0 45 24" fill="none" xmlns="http://www.w3.org/2000/svg">
<path d="M44.4845 10.7441L44.4828 10.7425L35.298 1.51664C34.6098 0.825501 33.4968 0.828073 32.8119 1.52268C32.1272 2.21719 32.1297 3.34052 32.8179 4.03174L38.9846 10.2258H1.75782C0.786972 10.2258 0 11.0201 0 12C0 12.9799 0.786972 13.7742 1.75782 13.7742H38.9846L32.8179 19.9682C32.1299 20.6595 32.1272 21.7829 32.8121 22.4774C33.497 23.172 34.61 23.1744 35.298 22.4834L44.483 13.2576L44.4845 13.2559C45.173 12.5623 45.1707 11.4354 44.4845 10.7441Z" fill="#1D1D1D"/>
</svg>
