<svg width="19" height="9" viewBox="0 0 19 9" fill="none" xmlns="http://www.w3.org/2000/svg">
<g clip-path="url(#clip0_609_6530)">
<g clip-path="url(#clip1_609_6530)">
<g clip-path="url(#clip2_609_6530)">
<path d="M18.2938 5.01377L18.2931 5.01446L14.6192 8.78866C14.3439 9.0714 13.8988 9.07031 13.6248 8.78618C13.3508 8.50205 13.3519 8.04257 13.6271 7.75976L16.0938 5.22582H1.20312C0.814789 5.22582 0.5 4.90087 0.5 4.50001C0.5 4.09914 0.814789 3.7742 1.20312 3.7742H16.0938L13.6272 1.24026C13.3519 0.957484 13.3509 0.497938 13.6248 0.21382C13.8988 -0.0703698 14.344 -0.0713495 14.6192 0.211353L18.2931 3.98556L18.2938 3.98625C18.5691 4.26997 18.5683 4.731 18.2938 5.01377Z" fill="black"/>
</g>
</g>
</g>
<defs>
<clipPath id="clip0_609_6530">
<rect width="18" height="9" fill="white" transform="translate(0.5)"/>
</clipPath>
<clipPath id="clip1_609_6530">
<rect width="18" height="9" fill="white" transform="translate(0.5)"/>
</clipPath>
<clipPath id="clip2_609_6530">
<rect width="18" height="9" fill="white" transform="translate(0.5)"/>
</clipPath>
</defs>
</svg>
