<svg width="18" height="18" viewBox="0 0 18 18" fill="none" xmlns="http://www.w3.org/2000/svg">
<g clip-path="url(#clip0_609_6567)">
<path d="M18 13.42V16.96C18 17.2133 17.91 17.4367 17.73 17.63C17.55 17.8233 17.3333 17.9333 17.08 17.96C16.64 17.9867 16.28 18 16 18C13.8267 18 11.7533 17.58 9.78 16.74C7.86 15.9267 6.16333 14.7833 4.69 13.31C3.21667 11.8367 2.07333 10.14 1.26 8.22C0.42 6.24667 0 4.17333 0 2C0 1.72 0.0133333 1.36 0.04 0.92C0.0666667 0.666668 0.176667 0.450001 0.37 0.27C0.563333 0.0900002 0.786667 0 1.04 0H4.58C4.71333 0 4.82667 0.0433331 4.92 0.130001C5.01333 0.216667 5.06667 0.32 5.08 0.440001L5.14 1C5.34 2.4 5.74 3.73333 6.34 5C6.39333 5.10667 6.40667 5.21333 6.38 5.32C6.35333 5.42667 6.29333 5.51333 6.2 5.58L4.04 7.12C4.69333 8.65333 5.61333 10.0133 6.8 11.2C7.98667 12.3867 9.34667 13.3067 10.88 13.96L12.42 11.8C12.4867 11.7067 12.5733 11.6467 12.68 11.62C12.7867 11.5933 12.8933 11.6067 13 11.66C14.2667 12.26 15.6 12.66 17 12.86L17.56 12.92C17.68 12.9333 17.7833 12.9867 17.87 13.08C17.9567 13.1733 18 13.2867 18 13.42Z" fill="#444444"/>
</g>
<defs>
<clipPath id="clip0_609_6567">
<rect width="18" height="18" fill="white"/>
</clipPath>
</defs>
</svg>
