<svg width="10" height="10" viewBox="0 0 10 10" fill="none" xmlns="http://www.w3.org/2000/svg">
<g clip-path="url(#clip0_609_2918)">
<path d="M6.44543 1.63086C6.22408 1.52669 5.99296 1.44857 5.75208 1.39648C5.51119 1.3444 5.26054 1.31836 5.00012 1.31836C4.02356 1.31836 3.19023 1.66341 2.50012 2.35352C1.81002 3.04362 1.46497 3.87695 1.46497 4.85352C1.46497 5.83008 1.81002 6.66341 2.50012 7.35352C3.19023 8.04362 4.02356 8.38867 5.00012 8.38867C5.97668 8.38867 6.81002 8.04362 7.50012 7.35352C8.19023 6.66341 8.53528 5.83008 8.53528 4.85352V4.48242C8.53528 4.33919 8.58736 4.21549 8.69153 4.11133C8.7957 4.00716 8.91939 3.95508 9.06262 3.95508C9.20585 3.95508 9.32955 4.00716 9.43372 4.11133C9.53788 4.21549 9.58997 4.33919 9.58997 4.48242V4.85352C9.58997 5.49154 9.46627 6.08398 9.21887 6.63086C8.9845 7.19076 8.65898 7.67904 8.24231 8.0957C7.82564 8.51237 7.33736 8.83789 6.77747 9.07227C6.23059 9.31966 5.63814 9.44336 5.00012 9.44336C4.3621 9.44336 3.76965 9.31966 3.22278 9.07227C2.66288 8.83789 2.1746 8.51237 1.75793 8.0957C1.34127 7.67904 1.01575 7.19076 0.781372 6.63086C0.533976 6.08398 0.410278 5.49154 0.410278 4.85352C0.410278 4.21549 0.533976 3.62305 0.781372 3.07617C1.01575 2.51628 1.34127 2.02799 1.75793 1.61133C2.1746 1.19466 2.66288 0.869141 3.22278 0.634766C3.76965 0.38737 4.3621 0.263672 5.00012 0.263672C5.33866 0.263672 5.66744 0.299479 5.98645 0.371094C6.30546 0.442708 6.60819 0.54362 6.89465 0.673828H6.85559C6.94674 0.712891 7.02161 0.774739 7.0802 0.859375C7.13879 0.944011 7.16809 1.03841 7.16809 1.14258C7.16809 1.28581 7.11601 1.4095 7.01184 1.51367C6.90767 1.61784 6.78398 1.66992 6.64075 1.66992C6.60168 1.66992 6.56588 1.66667 6.53333 1.66016C6.50077 1.65365 6.47148 1.63737 6.44543 1.61133V1.63086ZM9.43372 1.24023C9.47278 1.29232 9.50859 1.34766 9.54114 1.40625C9.57369 1.46484 9.58997 1.5332 9.58997 1.61133C9.58997 1.67643 9.57369 1.74154 9.54114 1.80664C9.50859 1.87174 9.47278 1.93034 9.43372 1.98242L5.37122 6.04492C5.31913 6.08398 5.26379 6.11979 5.2052 6.15234C5.14661 6.1849 5.07825 6.20117 5.00012 6.20117C4.93502 6.20117 4.86991 6.1849 4.80481 6.15234C4.73971 6.11979 4.68111 6.08398 4.62903 6.04492L3.41809 4.81445C3.36601 4.77539 3.3302 4.72331 3.31067 4.6582C3.29114 4.5931 3.28137 4.52799 3.28137 4.46289C3.28137 4.31966 3.3302 4.19596 3.42786 4.0918C3.52551 3.98763 3.64596 3.93555 3.78918 3.93555C3.86731 3.93555 3.93567 3.94857 3.99426 3.97461C4.05286 4.00065 4.1082 4.03971 4.16028 4.0918L5.00012 4.93164L8.69153 1.24023C8.74361 1.18815 8.79895 1.14909 8.85754 1.12305C8.91614 1.097 8.9845 1.08398 9.06262 1.08398C9.12773 1.08398 9.19283 1.097 9.25793 1.12305C9.32304 1.14909 9.38163 1.18815 9.43372 1.24023Z" fill="#84C1A8"/>
</g>
<defs>
<clipPath id="clip0_609_2918">
<rect width="10" height="10" fill="white" transform="matrix(1 0 0 -1 0 10)"/>
</clipPath>
</defs>
</svg>
