<svg width="11" height="11" viewBox="0 0 11 11" fill="none" xmlns="http://www.w3.org/2000/svg">
<g clip-path="url(#clip0_609_2150)">
<path d="M3.48484 0C3.79636 0 4.04891 0.252557 4.04891 0.564103C4.04891 0.851683 3.83372 1.089 3.55559 1.12381L3.48484 1.12821H1.97425C1.53616 1.12821 1.17584 1.46117 1.13251 1.88784L1.12814 1.97436V9.02564C1.12814 9.46375 1.46108 9.82409 1.88774 9.86743L1.97425 9.87179H9.02068C9.45876 9.87179 9.81909 9.53883 9.86242 9.11215L9.86678 9.02564V7.1843C9.86678 6.87275 10.1193 6.6202 10.4309 6.6202C10.7184 6.6202 10.9557 6.83539 10.9905 7.11354L10.9949 7.1843V9.02564C10.9949 10.0757 10.1753 10.9342 9.14094 10.9964L9.02068 11H1.97425C0.924284 11 0.0657573 10.1803 0.00360303 9.14591L0 9.02564V1.97436C0 0.924336 0.819639 0.065761 1.85398 0.00360324L1.97425 0H3.48484Z" fill="#050505"/>
<path d="M10.4359 0C10.7235 0 10.9608 0.215197 10.9956 0.493343L11 0.564103V4.3692C11 4.68074 10.7475 4.9333 10.4359 4.9333C10.1484 4.9333 9.91107 4.7181 9.87626 4.43996L9.87186 4.3692V1.12821H6.62535C6.33779 1.12821 6.10048 0.913008 6.06567 0.634862L6.06128 0.564103C6.06128 0.276522 6.27646 0.039204 6.55459 0.00439516L6.62535 0H10.4359Z" fill="#050505"/>
<path d="M10.0347 0.163215C10.2561 -0.0559668 10.6133 -0.0541652 10.8324 0.167239C11.0317 0.368515 11.0483 0.681991 10.8834 0.901998L10.8284 0.96499L4.76169 6.97116C4.5403 7.19034 4.18316 7.18854 3.96399 6.96714C3.76474 6.76586 3.74812 6.45239 3.91308 6.23238L3.96801 6.16939L10.0347 0.163215Z" fill="#050505"/>
</g>
<defs>
<clipPath id="clip0_609_2150">
<rect width="11" height="11" fill="white"/>
</clipPath>
</defs>
</svg>
