<svg width="14" height="12" viewBox="0 0 14 12" fill="none" xmlns="http://www.w3.org/2000/svg">
<path d="M12.6875 0.749999H1.3125C0.947917 0.749999 0.638021 0.877604 0.382812 1.13281C0.127604 1.38802 0 1.69792 0 2.0625V9.9375C0 10.3021 0.127604 10.612 0.382812 10.8672C0.638021 11.1224 0.947917 11.25 1.3125 11.25H12.6875C13.0521 11.25 13.362 11.1224 13.6172 10.8672C13.8724 10.612 14 10.3021 14 9.9375V2.0625C14 1.69792 13.8724 1.38802 13.6172 1.13281C13.362 0.877604 13.0521 0.749999 12.6875 0.749999ZM7 6.71094L1.51758 1.625H12.4824L7 6.71094ZM4.34766 5.43945L0.875 9.67773V2.22656L4.34766 5.43945ZM4.99023 6.04102L6.69922 7.62695C6.74479 7.67253 6.79264 7.70443 6.84277 7.72266C6.8929 7.74089 6.94531 7.75 7 7.75C7.05469 7.75 7.1071 7.74089 7.15723 7.72266C7.20736 7.70443 7.25521 7.67253 7.30078 7.62695L9.00977 6.04102L12.5645 10.375H1.43555L4.99023 6.04102ZM9.65234 5.43945L13.125 2.22656V9.67773L9.65234 5.43945Z" fill="#E35845"/>
</svg>
