<svg width="14" height="14" viewBox="0 0 14 14" fill="none" xmlns="http://www.w3.org/2000/svg">
<g clip-path="url(#clip0_609_1304)">
<g clip-path="url(#clip1_609_1304)">
<g clip-path="url(#clip2_609_1304)">
<path d="M11.9281 11.9999C12.1873 12.0038 12.4382 11.9035 12.6304 11.7191L9.23066 8.11364L8.99533 8.29285C8.74081 8.49153 8.53428 8.64641 8.37572 8.75748C8.17525 8.89179 7.96342 9.00602 7.74297 9.09865C7.51063 9.20754 7.26028 9.26664 7.00633 9.27255H6.99318C6.73923 9.26664 6.48888 9.20754 6.25654 9.09865C6.03606 9.00607 5.82423 8.89185 5.62379 8.75748C5.46523 8.64641 5.2587 8.49153 5.00418 8.29285L4.76948 8.1123L1.36914 11.7185C1.56137 11.9028 1.81225 12.0031 2.07136 11.9992L11.9281 11.9999Z" fill="black"/>
<path d="M1.67852 5.84354C1.42937 5.66857 1.20205 5.46095 1.00195 5.22559L1.00195 10.7108L3.99798 7.53345C3.39882 7.08962 2.62566 6.52631 1.67852 5.84354Z" fill="black"/>
<path d="M12.3306 5.8436C11.4185 6.49806 10.6433 7.0618 10.0049 7.53484L12.9997 10.7115V5.22632C12.8008 5.45984 12.5762 5.66709 12.3306 5.8436Z" fill="black"/>
<path d="M11.9279 2.00164H2.07236C1.92202 1.99255 1.77179 2.02124 1.63388 2.08537C1.49598 2.1495 1.3743 2.24726 1.27876 2.37069C1.08784 2.63488 0.989585 2.96132 1.00088 3.29396C1.02196 3.65058 1.15103 3.99046 1.36889 4.26304C1.58523 4.58082 1.85006 4.8581 2.15247 5.08343C2.30435 5.19715 2.76186 5.53456 3.525 6.09565C3.93682 6.39832 4.29544 6.66249 4.60337 6.89215C4.86561 7.08596 5.09217 7.25389 5.2793 7.39328L5.37944 7.46895L5.5672 7.61032C5.7124 7.72139 5.83299 7.81144 5.92895 7.88047C6.02492 7.9495 6.14091 8.0265 6.27694 8.11146C6.39855 8.18952 6.52756 8.25381 6.66184 8.30328C6.76937 8.34434 6.88243 8.36675 6.99668 8.36966H7.00545C7.1197 8.36675 7.23276 8.34434 7.34028 8.30328C7.47458 8.25384 7.60359 8.18954 7.72519 8.11146C7.86121 8.02606 7.97721 7.94906 8.07317 7.88047C8.16914 7.81189 8.28973 7.72183 8.43493 7.61032L8.61956 7.46961L8.7197 7.39394L9.39751 6.89481L11.8534 5.08609C12.1738 4.8504 12.4506 4.55432 12.6702 4.21259C12.8804 3.8993 12.9948 3.52513 12.9981 3.14064C12.9958 2.84001 12.8822 2.55239 12.6818 2.33981C12.4813 2.12723 12.2101 2.00673 11.9266 2.0043L11.9279 2.00164Z" fill="black"/>
</g>
</g>
</g>
<defs>
<clipPath id="clip0_609_1304">
<rect width="14" height="14" fill="white"/>
</clipPath>
<clipPath id="clip1_609_1304">
<rect width="14" height="14" fill="white"/>
</clipPath>
<clipPath id="clip2_609_1304">
<rect width="14" height="14" fill="white"/>
</clipPath>
</defs>
</svg>
