<svg width="18" height="18" viewBox="0 0 18 18" fill="none" xmlns="http://www.w3.org/2000/svg">
<path d="M10.6667 10.35H13.0476L14 6.75H10.6667V4.95C10.6667 4.542 10.6857 4.248 10.7238 4.068C10.8 3.78 10.9651 3.558 11.219 3.402C11.5238 3.234 11.9746 3.15 12.5714 3.15H14V0.126001C13.7841 0.102001 13.4413 0.078001 12.9714 0.0540009C12.3873 0.0180016 11.8222 0 11.2762 0C10.4 0 9.62857 0.165001 8.96191 0.495001C8.29524 0.825001 7.78413 1.296 7.42857 1.908C7.04762 2.568 6.85714 3.342 6.85714 4.23V6.75H4V10.35H6.85714V18H10.6667V10.35Z" fill="#444444"/>
</svg>
