<svg width="18" height="18" viewBox="0 0 18 18" fill="none" xmlns="http://www.w3.org/2000/svg">
<g clip-path="url(#clip0_609_6555)">
<g clip-path="url(#clip1_609_6555)">
<g clip-path="url(#clip2_609_6555)">
<path d="M9 6.3C8.508 6.3 8.055 6.42 7.641 6.66C7.227 6.9 6.9 7.227 6.66 7.641C6.42 8.055 6.3 8.508 6.3 9C6.3 9.492 6.42 9.945 6.66 10.359C6.9 10.773 7.227 11.1 7.641 11.34C8.055 11.58 8.508 11.7 9 11.7C9.492 11.7 9.945 11.58 10.359 11.34C10.773 11.1 11.1 10.773 11.34 10.359C11.58 9.945 11.7 9.492 11.7 9C11.7 8.508 11.58 8.055 11.34 7.641C11.1 7.227 10.773 6.9 10.359 6.66C9.945 6.42 9.492 6.3 9 6.3ZM9 4.5C9.816 4.5 10.569 4.701 11.259 5.103C11.949 5.505 12.495 6.051 12.897 6.741C13.299 7.431 13.5 8.184 13.5 9C13.5 9.816 13.299 10.569 12.897 11.259C12.495 11.949 11.949 12.495 11.259 12.897C10.569 13.299 9.816 13.5 9 13.5C8.184 13.5 7.431 13.299 6.741 12.897C6.051 12.495 5.505 11.949 5.103 11.259C4.701 10.569 4.5 9.816 4.5 9C4.5 8.184 4.701 7.431 5.103 6.741C5.505 6.051 6.051 5.505 6.741 5.103C7.431 4.701 8.184 4.5 9 4.5ZM14.85 4.266C14.85 4.578 14.739 4.845 14.517 5.067C14.295 5.289 14.031 5.4 13.725 5.4C13.419 5.4 13.155 5.289 12.933 5.067C12.711 4.845 12.6 4.581 12.6 4.275C12.6 3.969 12.711 3.705 12.933 3.483C13.155 3.261 13.419 3.15 13.725 3.15C14.031 3.15 14.295 3.261 14.517 3.483C14.739 3.705 14.85 3.966 14.85 4.266ZM9 1.8C7.896 1.8 7.146 1.803 6.75 1.809C6.354 1.815 5.898 1.83 5.382 1.854C4.734 1.878 4.194 1.974 3.762 2.142C3.39 2.286 3.063 2.499 2.781 2.781C2.499 3.063 2.286 3.39 2.142 3.762C1.974 4.194 1.878 4.734 1.854 5.382C1.83 5.874 1.815 6.315 1.809 6.705C1.803 7.095 1.8 7.86 1.8 9C1.8 10.104 1.803 10.854 1.809 11.25C1.815 11.646 1.83 12.102 1.854 12.618C1.878 13.266 1.974 13.806 2.142 14.238C2.286 14.61 2.499 14.937 2.781 15.219C3.063 15.501 3.39 15.708 3.762 15.84C4.194 16.02 4.734 16.122 5.382 16.146C5.874 16.17 6.315 16.185 6.705 16.191C7.095 16.197 7.86 16.2 9 16.2C10.104 16.2 10.854 16.197 11.25 16.191C11.646 16.185 12.102 16.17 12.618 16.146C13.266 16.122 13.806 16.026 14.238 15.858C14.61 15.714 14.937 15.501 15.219 15.219C15.501 14.937 15.708 14.61 15.84 14.238C16.02 13.806 16.122 13.266 16.146 12.618C16.17 12.126 16.185 11.685 16.191 11.295C16.197 10.905 16.2 10.14 16.2 9C16.2 7.896 16.197 7.146 16.191 6.75C16.185 6.354 16.17 5.898 16.146 5.382C16.122 4.734 16.026 4.194 15.858 3.762C15.714 3.39 15.501 3.063 15.219 2.781C14.937 2.499 14.61 2.286 14.238 2.142C13.806 1.974 13.266 1.878 12.618 1.854C12.126 1.83 11.685 1.815 11.295 1.809C10.905 1.803 10.14 1.8 9 1.8ZM9 0C10.176 0 10.98 0.00600052 11.412 0.0180016C11.772 0.0180016 12.204 0.0300007 12.708 0.0540009C13.548 0.0900002 14.274 0.228001 14.886 0.468C15.498 0.708 16.032 1.056 16.488 1.512C16.944 1.968 17.292 2.502 17.532 3.114C17.772 3.726 17.91 4.452 17.946 5.292C17.97 5.808 17.982 6.24 17.982 6.588C17.994 7.044 18 7.854 18 9.018C18 10.182 17.994 10.98 17.982 11.412C17.982 11.772 17.97 12.204 17.946 12.708C17.91 13.548 17.772 14.274 17.532 14.886C17.292 15.498 16.944 16.032 16.488 16.488C16.032 16.944 15.498 17.292 14.886 17.532C14.274 17.772 13.548 17.91 12.708 17.946C12.192 17.97 11.76 17.982 11.412 17.982C10.956 17.994 10.146 18 8.982 18C7.818 18 7.02 17.994 6.588 17.982C6.228 17.982 5.796 17.97 5.292 17.946C4.452 17.91 3.726 17.772 3.114 17.532C2.502 17.292 1.968 16.944 1.512 16.488C1.056 16.032 0.708 15.498 0.468 14.886C0.228 14.274 0.09 13.548 0.054 12.708C0.03 12.192 0.018 11.76 0.018 11.412C0.006 10.956 0 10.146 0 8.982C0 7.818 0.006 7.02 0.018 6.588C0.018 6.228 0.03 5.796 0.054 5.292C0.09 4.452 0.228 3.726 0.468 3.114C0.708 2.502 1.056 1.968 1.512 1.512C1.968 1.056 2.502 0.708 3.114 0.468C3.726 0.228001 4.452 0.0900002 5.292 0.0540009C5.808 0.0300007 6.24 0.0180016 6.588 0.0180016C7.044 0.00600052 7.848 0 9 0Z" fill="#444444"/>
</g>
</g>
</g>
<defs>
<clipPath id="clip0_609_6555">
<rect width="18" height="18" fill="white"/>
</clipPath>
<clipPath id="clip1_609_6555">
<rect width="18" height="18" fill="white"/>
</clipPath>
<clipPath id="clip2_609_6555">
<rect width="18" height="18" fill="white"/>
</clipPath>
</defs>
</svg>
