<svg width="23" height="22" viewBox="0 0 23 22" fill="none" xmlns="http://www.w3.org/2000/svg">
<path d="M6.43018 4.58333C6.41795 4.96222 6.30795 5.30445 6.10018 5.61C5.8924 5.91556 5.6174 6.13861 5.27518 6.27917C4.93295 6.41972 4.57851 6.45333 4.21184 6.38C3.84518 6.30667 3.53045 6.13556 3.26768 5.86667C3.0049 5.59778 2.84295 5.28 2.78184 4.91333C2.72073 4.54667 2.76351 4.19222 2.91018 3.85C3.05684 3.50778 3.28907 3.23583 3.60684 3.03417C3.92462 2.8325 4.27295 2.73778 4.65184 2.75C5.14073 2.76222 5.55934 2.94556 5.90768 3.3C6.25601 3.65444 6.43018 4.08222 6.43018 4.58333ZM6.48518 7.77333H2.81851V19.25H6.48518V7.77333ZM12.2785 7.77333H8.63018V19.25H12.2418V13.2367C12.2418 12.5889 12.3885 12.0389 12.6818 11.5867C12.963 11.1711 13.3235 10.8839 13.7635 10.725C14.2035 10.5661 14.6435 10.5539 15.0835 10.6883C15.5235 10.8228 15.878 11.0917 16.1468 11.495C16.4524 11.9594 16.6052 12.54 16.6052 13.2367V19.25H20.2352V11.99C20.2352 10.9144 20.003 10.0039 19.5385 9.25833C19.1352 8.61056 18.573 8.12167 17.8518 7.79167C17.1918 7.51056 16.4768 7.38833 15.7068 7.425C14.9613 7.46167 14.2707 7.64806 13.6352 7.98417C12.9996 8.32028 12.5352 8.76333 12.2418 9.31333L12.2785 7.77333Z" fill="#444444"/>
</svg>
