<svg width="17" height="17" viewBox="0 0 17 17" fill="none" xmlns="http://www.w3.org/2000/svg">
<path d="M2.09001 2.7998H14.09C14.2767 2.7998 14.4345 2.86425 14.5633 2.99314C14.6922 3.12203 14.7567 3.2798 14.7567 3.46647V14.1331C14.7567 14.3198 14.6922 14.4776 14.5633 14.6065C14.4345 14.7354 14.2767 14.7998 14.09 14.7998H2.09001C1.90334 14.7998 1.74556 14.7354 1.61667 14.6065C1.48778 14.4776 1.42334 14.3198 1.42334 14.1331V3.46647C1.42334 3.2798 1.48778 3.12203 1.61667 2.99314C1.74556 2.86425 1.90334 2.7998 2.09001 2.7998ZM8.13001 8.58647L3.85001 4.9598L2.99667 5.97314L8.14334 10.3465L13.1967 5.97314L12.3167 4.9598L8.13001 8.58647Z" fill="#75807E"/>
</svg>
