<svg width="23" height="23" viewBox="0 0 23 23" fill="none" xmlns="http://www.w3.org/2000/svg">
<path d="M17.3202 15.625L11.4902 21.455L5.66023 15.625C4.5969 14.5738 3.8819 13.3272 3.51523 11.885C3.14857 10.4916 3.14857 9.09829 3.51523 7.70496C3.8819 6.26273 4.59385 5.01301 5.65107 3.95579C6.70829 2.89857 7.95801 2.18051 9.40023 1.80162C10.7936 1.44718 12.1869 1.44718 13.5802 1.80162C15.0225 2.18051 16.2722 2.89857 17.3294 3.95579C18.3866 5.01301 19.0986 6.26273 19.4652 7.70496C19.8319 9.09829 19.8319 10.4916 19.4652 11.885C19.0986 13.3272 18.3836 14.5738 17.3202 15.625ZM11.4902 13.4616C12.1502 13.4616 12.7613 13.2966 13.3236 12.9666C13.8858 12.6366 14.3319 12.1905 14.6619 11.6283C14.9919 11.0661 15.1569 10.4519 15.1569 9.78579C15.1569 9.11968 14.9919 8.50857 14.6619 7.95246C14.3319 7.39635 13.8858 6.95329 13.3236 6.62329C12.7613 6.29329 12.1502 6.12829 11.4902 6.12829C10.8302 6.12829 10.2191 6.29329 9.6569 6.62329C9.09468 6.95329 8.64857 7.39635 8.31857 7.95246C7.98857 8.50857 7.82357 9.11968 7.82357 9.78579C7.82357 10.4519 7.98857 11.0661 8.31857 11.6283C8.64857 12.1905 9.09468 12.6366 9.6569 12.9666C10.2191 13.2966 10.8302 13.4616 11.4902 13.4616ZM11.4902 11.6283C11.1602 11.6283 10.8547 11.5458 10.5736 11.3808C10.2925 11.2158 10.0694 10.9927 9.9044 10.7116C9.7394 10.4305 9.6569 10.125 9.6569 9.79496C9.6569 9.46496 9.7394 9.1594 9.9044 8.87829C10.0694 8.59718 10.2925 8.37412 10.5736 8.20912C10.8547 8.04412 11.1602 7.96162 11.4902 7.96162C11.8202 7.96162 12.1258 8.04412 12.4069 8.20912C12.688 8.37412 12.9111 8.59718 13.0761 8.87829C13.2411 9.1594 13.3236 9.46496 13.3236 9.79496C13.3236 10.125 13.2411 10.4305 13.0761 10.7116C12.9111 10.9927 12.688 11.2158 12.4069 11.3808C12.1258 11.5458 11.8202 11.6283 11.4902 11.6283Z" fill="#1D1D1D"/>
</svg>
