<svg width="14" height="14" viewBox="0 0 14 14" fill="none" xmlns="http://www.w3.org/2000/svg">
<g clip-path="url(#clip0_609_1315)">
<g clip-path="url(#clip1_609_1315)">
<g clip-path="url(#clip2_609_1315)">
<path d="M7.0002 0.699951C3.52056 0.699951 0.700195 3.30904 0.700195 6.5335C0.708553 7.42156 0.925331 8.29525 1.33308 9.08421C1.74082 9.87318 2.32815 10.5554 3.04774 11.0759V13.3031L5.19292 12.1259C5.7816 12.2882 6.38954 12.3702 7.0002 12.3696C10.4798 12.3696 13.3002 9.7605 13.3002 6.53604C13.3002 3.31159 10.4798 0.699951 7.0002 0.699951ZM7.62638 8.55522L6.0221 6.84404L2.89183 8.55522L6.3352 4.89995L7.97892 6.61113L11.0729 4.89995L7.62638 8.55522Z" fill="black"/>
</g>
</g>
</g>
<defs>
<clipPath id="clip0_609_1315">
<rect width="14" height="14" fill="white"/>
</clipPath>
<clipPath id="clip1_609_1315">
<rect width="14" height="14" fill="white"/>
</clipPath>
<clipPath id="clip2_609_1315">
<rect width="14" height="14" fill="white"/>
</clipPath>
</defs>
</svg>
