<svg width="23" height="23" viewBox="0 0 23 23" fill="none" xmlns="http://www.w3.org/2000/svg">
<path d="M6.41255 17.22L2.32422 20.4283V3.47001C2.32422 3.22557 2.41283 3.01473 2.59005 2.83751C2.76727 2.66029 2.98422 2.56557 3.24089 2.55334H19.7409C19.9976 2.55334 20.2145 2.64501 20.3917 2.82835C20.5689 3.01168 20.6576 3.22557 20.6576 3.47001V16.3033C20.6576 16.56 20.5689 16.78 20.3917 16.9633C20.2145 17.1467 19.9976 17.2322 19.7409 17.22H6.41255ZM6.90755 8.97001V10.8033H8.74089V8.97001H6.90755ZM10.5742 8.97001V10.8033H12.4076V8.97001H10.5742ZM14.2409 8.97001V10.8033H16.0742V8.97001H14.2409Z" fill="#1D1D1D"/>
</svg>
