<svg width="9" height="6" viewBox="0 0 9 6" fill="none" xmlns="http://www.w3.org/2000/svg">
<path d="M5.8772 0.614258C5.91626 0.594727 5.96021 0.575195 6.00903 0.555664C6.05786 0.536133 6.11157 0.526367 6.17017 0.526367C6.24829 0.526367 6.32153 0.541016 6.38989 0.570312C6.45825 0.599609 6.51196 0.643555 6.55103 0.702148L8.13306 2.66504C8.17212 2.7041 8.20142 2.75293 8.22095 2.81152C8.24048 2.87012 8.25024 2.92871 8.25024 2.9873C8.25024 3.0459 8.24048 3.09961 8.22095 3.14844C8.20142 3.19727 8.17212 3.24121 8.13306 3.28027L6.55103 5.21387C6.51196 5.27246 6.45825 5.32129 6.38989 5.36035C6.32153 5.39941 6.24829 5.41895 6.17017 5.41895C6.03345 5.41895 5.92114 5.37012 5.83325 5.27246C5.74536 5.1748 5.70142 5.05762 5.70142 4.9209C5.70142 4.8623 5.71118 4.80859 5.73071 4.75977C5.75024 4.71094 5.76978 4.65723 5.78931 4.59863L6.72681 3.45605H1.24829C1.11157 3.45605 0.994385 3.40723 0.896729 3.30957C0.799072 3.21191 0.750244 3.10449 0.750244 2.9873C0.750244 2.85059 0.799072 2.7334 0.896729 2.63574C0.994385 2.53809 1.11157 2.48926 1.24829 2.48926H6.72681L5.78931 1.31738C5.76978 1.27832 5.75024 1.22949 5.73071 1.1709C5.71118 1.1123 5.70142 1.05371 5.70142 0.995117C5.70142 0.916992 5.71606 0.848633 5.74536 0.790039C5.77466 0.731445 5.8186 0.672852 5.8772 0.614258Z" fill="black"/>
</svg>
