<svg width="18" height="18" viewBox="0 0 18 18" fill="none" xmlns="http://www.w3.org/2000/svg">
<path d="M7.97244 0C9.41339 0 10.7539 0.36614 11.9941 1.09842C13.1988 1.79527 14.1555 2.74606 14.8642 3.95079C15.5846 5.19094 15.9449 6.5315 15.9449 7.97244C15.9449 9.41339 15.5846 10.7539 14.8642 11.9941C14.1555 13.1988 13.1988 14.1555 11.9941 14.8642C10.7539 15.5846 9.41339 15.9449 7.97244 15.9449C6.5315 15.9449 5.19095 15.5846 3.95079 14.8642C2.74606 14.1555 1.79528 13.1988 1.09843 11.9941C0.366142 10.7539 0 9.41339 0 7.97244C0 6.5315 0.366142 5.19094 1.09843 3.95079C1.79528 2.74606 2.74606 1.79527 3.95079 1.09842C5.19095 0.36614 6.5315 0 7.97244 0ZM7.97244 14.1732C9.09449 14.1732 10.1398 13.8898 11.1083 13.3228C12.0413 12.7795 12.7795 12.0413 13.3228 11.1083C13.8898 10.1398 14.1732 9.09449 14.1732 7.97244C14.1732 6.85039 13.8898 5.80512 13.3228 4.83661C12.7795 3.90354 12.0413 3.16535 11.1083 2.62205C10.1398 2.05512 9.09449 1.77165 7.97244 1.77165C6.85039 1.77165 5.80512 2.05512 4.83661 2.62205C3.90354 3.16535 3.16535 3.90354 2.62205 4.83661C2.05512 5.80512 1.77165 6.85039 1.77165 7.97244C1.77165 9.09449 2.05512 10.1398 2.62205 11.1083C3.16535 12.0413 3.90354 12.7795 4.83661 13.3228C5.80512 13.8898 6.85039 14.1732 7.97244 14.1732ZM15.4843 14.2441L18 16.7421L16.7421 18L14.2441 15.4843L15.4843 14.2441Z" fill="#75807E"/>
</svg>
