<svg width="14" height="14" viewBox="0 0 14 14" fill="none" xmlns="http://www.w3.org/2000/svg">
<path fill-rule="evenodd" clip-rule="evenodd" d="M10.4999 1.69185C10.339 1.69185 10.1797 1.72353 10.0311 1.78509C9.88244 1.84666 9.7474 1.93689 9.63365 2.05064C9.5199 2.16439 9.42966 2.29943 9.3681 2.44806C9.30654 2.59668 9.27485 2.75598 9.27485 2.91685C9.27485 3.07771 9.30654 3.23701 9.3681 3.38563C9.42966 3.53426 9.5199 3.6693 9.63365 3.78305C9.7474 3.8968 9.88244 3.98704 10.0311 4.0486C10.1797 4.11016 10.339 4.14185 10.4999 4.14185C10.8247 4.14185 11.1363 4.01278 11.3661 3.78305C11.5958 3.55332 11.7249 3.24174 11.7249 2.91685C11.7249 2.59196 11.5958 2.28037 11.3661 2.05064C11.1363 1.82091 10.8247 1.69185 10.4999 1.69185ZM8.22485 2.91685C8.22485 2.31348 8.46454 1.73482 8.89119 1.30818C9.31783 0.881532 9.89649 0.641846 10.4999 0.641846C11.1032 0.641846 11.6819 0.881532 12.1085 1.30818C12.5352 1.73482 12.7749 2.31348 12.7749 2.91685C12.7749 3.52021 12.5352 4.09887 12.1085 4.52551C11.6819 4.95216 11.1032 5.19185 10.4999 5.19185C9.89649 5.19185 9.31783 4.95216 8.89119 4.52551C8.46454 4.09887 8.22485 3.52021 8.22485 2.91685ZM3.49985 5.77495C3.33898 5.77495 3.17969 5.80663 3.03107 5.86819C2.88244 5.92976 2.7474 6.01999 2.63365 6.13374C2.5199 6.24749 2.42966 6.38253 2.3681 6.53116C2.30654 6.67978 2.27485 6.83908 2.27485 6.99995C2.27485 7.16082 2.30654 7.32011 2.3681 7.46873C2.42966 7.61736 2.5199 7.7524 2.63365 7.86615C2.7474 7.9799 2.88244 8.07014 3.03107 8.1317C3.17969 8.19326 3.33898 8.22495 3.49985 8.22495C3.82474 8.22495 4.13633 8.09588 4.36606 7.86615C4.59579 7.63642 4.72485 7.32484 4.72485 6.99995C4.72485 6.67506 4.59579 6.36347 4.36606 6.13374C4.13633 5.90401 3.82474 5.77495 3.49985 5.77495ZM1.22485 6.99995C1.22485 6.39658 1.46454 5.81792 1.89119 5.39128C2.31783 4.96463 2.89649 4.72495 3.49985 4.72495C4.10322 4.72495 4.68188 4.96463 5.10852 5.39128C5.53517 5.81792 5.77485 6.39658 5.77485 6.99995C5.77485 7.60331 5.53517 8.18197 5.10852 8.60861C4.68188 9.03526 4.10322 9.27495 3.49985 9.27495C2.89649 9.27495 2.31783 9.03526 1.89119 8.60861C1.46454 8.18197 1.22485 7.60331 1.22485 6.99995ZM10.4999 9.85875C10.175 9.85875 9.86338 9.98781 9.63365 10.2175C9.40392 10.4473 9.27485 10.7589 9.27485 11.0837C9.27485 11.4086 9.40392 11.7202 9.63365 11.95C9.86338 12.1797 10.175 12.3087 10.4999 12.3087C10.8247 12.3087 11.1363 12.1797 11.3661 11.95C11.5958 11.7202 11.7249 11.4086 11.7249 11.0837C11.7249 10.7589 11.5958 10.4473 11.3661 10.2175C11.1363 9.98781 10.8247 9.85875 10.4999 9.85875ZM8.22485 11.0837C8.22485 10.4804 8.46454 9.90172 8.89119 9.47508C9.31783 9.04843 9.89649 8.80875 10.4999 8.80875C11.1032 8.80875 11.6819 9.04843 12.1085 9.47508C12.5352 9.90172 12.7749 10.4804 12.7749 11.0837C12.7749 11.6871 12.5352 12.2658 12.1085 12.6924C11.6819 13.1191 11.1032 13.3587 10.4999 13.3587C9.89649 13.3587 9.31783 13.1191 8.89119 12.6924C8.46454 12.2658 8.22485 11.6871 8.22485 11.0837Z" fill="black"/>
<path fill-rule="evenodd" clip-rule="evenodd" d="M4.55666 7.61584C4.5914 7.55626 4.63753 7.50411 4.69243 7.46236C4.74733 7.42062 4.80991 7.3901 4.87661 7.37254C4.9433 7.35499 5.0128 7.35075 5.08114 7.36007C5.14947 7.36939 5.2153 7.39208 5.27486 7.42684L9.25926 9.74874C9.37957 9.81892 9.46706 9.93401 9.50251 10.0687C9.53795 10.2034 9.51844 10.3466 9.44826 10.4669C9.37809 10.5872 9.263 10.6747 9.12831 10.7102C8.99362 10.7456 8.85037 10.7261 8.73006 10.6559L4.74636 8.33404C4.62623 8.26389 4.53884 8.14893 4.5034 8.0144C4.46797 7.87987 4.48737 7.73677 4.55736 7.61654L4.55666 7.61584ZM9.44266 3.53274C9.47743 3.5923 9.50012 3.65813 9.50944 3.72647C9.51875 3.7948 9.51451 3.8643 9.49696 3.931C9.47941 3.99769 9.44889 4.06028 9.40714 4.11518C9.3654 4.17007 9.31325 4.21621 9.25366 4.25094L5.27486 6.57214C5.15489 6.63817 5.01387 6.65471 4.88188 6.61823C4.74989 6.58175 4.63738 6.49515 4.56834 6.37688C4.4993 6.25862 4.4792 6.11806 4.51233 5.98519C4.54545 5.85232 4.62919 5.73765 4.74566 5.66564L8.72446 3.34374C8.8447 3.27375 8.98779 3.25434 9.12232 3.28978C9.25685 3.32522 9.37252 3.4126 9.44266 3.53274Z" fill="black"/>
</svg>
