<svg width="206" height="36" viewBox="0 0 206 36" fill="none" xmlns="http://www.w3.org/2000/svg">
<g clip-path="url(#clip0_92_2207)">
<path d="M66.2222 17.0129L55.303 0.764648H46.7183L62.0447 23.2518L56.8721 31.0095H65.0682L85.2728 0.764648H77.1326L66.2222 17.0129Z" fill="#13E554"/>
<path d="M111.701 12.2579H96.822V6.39426H119.9V0.768066H89.621V31.0099H111.701C118.178 31.0099 122.199 27.3803 122.199 21.6281C122.199 15.8758 118.166 12.2579 111.701 12.2579ZM110.703 25.4365H96.822V17.8753H110.703C113.352 17.8753 114.869 19.1712 114.869 21.6867C114.869 24.1407 113.394 25.4365 110.703 25.4365Z" fill="#13E554"/>
<path d="M127.216 15.9316C127.216 25.6565 134.417 31.7635 146.646 31.7635C158.875 31.7635 166.076 25.6448 166.076 15.9316C166.076 6.11874 158.831 0 146.646 0C134.461 0 127.216 6.11874 127.216 15.9316ZM134.85 15.9316C134.85 9.55192 138.797 5.98388 146.649 5.98388C154.501 5.98388 158.407 9.55192 158.407 15.9316C158.407 22.3113 154.498 25.7914 146.649 25.7914C138.8 25.7914 134.85 22.2702 134.85 15.9316Z" fill="#13E554"/>
<path d="M206.203 31.0095L186.266 15.4326L205.588 0.764648H195.572L178.739 13.5152V0.764648H171.62V31.0095H178.739V17.7107L195.843 31.0095H206.203Z" fill="#13E554"/>
<path d="M40.3591 0.768066H22.8777L7.61904 25.2635H0L6.68874 35.9999H14.6198L11.5169 31.0158H36.8352L33.5085 35.9999H41.7428L48.6583 25.2635H40.3591V0.768066ZM15.4088 25.2635L27.0229 6.55551H33.1523V25.2635H15.4088Z" fill="#13E554"/>
</g>
<defs>
<clipPath id="clip0_92_2207">
<rect width="206" height="36" fill="white"/>
</clipPath>
</defs>
</svg>
