<svg width="85" height="48" viewBox="0 0 85 48" fill="none" xmlns="http://www.w3.org/2000/svg">
<g clip-path="url(#clip0_609_6265)">
<path fill-rule="evenodd" clip-rule="evenodd" d="M59.6617 39.4263L77.5018 20.0704V39.4263H59.6617ZM77.5667 0.19485L41.3041 39.4263H54.6198L77.5018 14.6144V0.19485H77.5667ZM20.1027 9.8728L45.0532 9.80784L53.9734 0.129913H20.3612C20.2966 0.129913 20.2319 0.129913 20.1027 0.129913C15.5779 0.129913 11.4411 1.55887 8.07986 4.02708C3.1673 7.59948 0 13.3153 0 19.7456C0 24.1624 1.48669 28.2544 4.07225 31.502C5.81748 33.7754 8.01518 35.594 10.6007 36.958C12.7338 38.322 15.2547 39.1664 17.9696 39.2964H20.038C20.1027 39.2964 20.1026 39.2964 20.1673 39.2964C20.2319 39.2964 20.2966 39.2964 20.3612 39.2964H36.3916L44.7946 30.138L59.2739 14.4195V0L31.8669 29.6834H19.7795C16.6768 29.5535 13.8973 28.1245 12.0874 25.8512C10.73 24.1624 9.88973 22.019 9.88973 19.7456C9.88973 16.1732 11.8935 12.9905 14.8023 11.2368C16.3536 10.3924 18.1635 9.8728 20.1027 9.8728ZM75.886 4.41676L47.9621 34.6847H52.228L73.7527 11.4317L75.886 4.41676ZM10.2775 8.5088L9.95433 8.7686L9.63117 9.0284L9.30797 9.35316L8.98478 9.67796L8.66158 10.0027L8.40306 10.3275L8.14446 10.6522L7.8859 10.977L7.62739 11.3018L7.36879 11.6265L7.11027 11.9513L6.91631 12.341L6.72239 12.7307L6.52851 13.1204L6.3346 13.5102L6.14068 13.8999L5.94672 14.2896L5.81748 14.6793L5.6882 15.069L5.55892 15.4587L5.42964 15.8484L5.30036 16.2382L5.17108 16.6279L5.10644 17.0825L5.0418 17.5372L4.97717 17.9919L4.91253 18.4466L4.84793 18.9012V19.3559V19.4208C3.94296 20.59 2.90873 21.1096 1.68059 20.8498C1.61595 19.8755 1.68058 19.226 1.74522 18.1868L1.80988 17.6671L1.8745 17.1475L1.93916 16.6279L2.06841 16.1082L2.1977 15.5886L2.32698 15.069L2.45627 14.5494L2.65017 14.0298L2.84408 13.5102L3.03799 13.0555L3.23194 12.6008L3.42585 12.1462L3.68438 11.6915L3.94295 11.2368L4.20153 10.7822L4.46005 10.3275L4.71861 9.8728L5.0418 9.41812L5.365 9.0284L5.6882 8.63868L6.0114 8.249L6.3346 7.85928L6.72239 7.46956L7.11027 7.07984L7.49807 6.75508L7.8859 6.43032L8.27374 6.10556L8.66158 5.7808L9.11406 5.456L9.37261 5.26116L9.69581 5.06628L10.019 4.87144L10.3422 4.6766L10.6654 4.48172L10.9886 4.28688L11.3118 4.092L11.635 3.89716L11.9582 3.70231L12.2814 3.5724L12.6046 3.44248L12.9277 3.31259L13.2509 3.18268L13.5741 3.05278L13.8973 2.92287L14.2205 2.79296L14.5437 2.66306L14.8669 2.53315L15.1901 2.40326L15.5779 2.3383L15.9658 2.27334L16.3536 2.20839L16.7414 2.14343L17.1293 2.07849L17.5171 2.01354L17.9049 1.94858L18.2928 1.88362L18.6806 1.81867H19.0684H19.4563H19.8441H20.2319H20.2965H20.3612H20.4905H50.2888L43.6311 5.00136H19.7795H19.7148C17.8403 5.13128 16.095 5.456 14.4791 6.10556H14.4145L14.1559 6.23544L13.8973 6.36536L13.6388 6.49528L13.3802 6.62516L13.1217 6.75508L12.8631 6.885L12.6046 7.01488L12.346 7.1448L12.0874 7.27472L11.8289 7.4046L11.5703 7.59948L11.3118 7.79432L11.0532 7.98916L10.6654 8.249L10.2775 8.5088ZM8.27374 18.9662V19.8106V20.3302L8.33838 20.8498L8.40306 21.3694L8.46766 21.889L8.5323 22.3437L8.66158 22.7984L8.79086 23.253L8.92014 23.7077L9.11406 24.1624L9.30797 24.617L9.50185 25.0717L9.69581 25.4614L9.95433 25.8512L10.2129 26.2409L10.4714 26.6306L10.7946 27.0203L11.1825 27.475L11.635 27.9296L12.0874 28.3843L12.5399 28.774L13.057 29.1637L13.5741 29.5534L14.0913 29.8782L14.673 30.203L15.2547 30.4628L15.8365 30.7226L16.4182 30.9175L17.0646 31.1123L17.711 31.2422L18.3574 31.3721L19.0038 31.4371C23.3992 31.6969 27.9886 31.502 32.5133 31.502L57.5284 4.41676L55.5248 11.4317L34.0646 34.6198H19.0038H18.9391C14.9962 34.23 11.5703 32.4763 8.8555 29.6184L8.33838 29.0338L7.95054 28.5142L7.62739 27.9946L7.30419 27.475L6.98099 26.9554L6.72239 26.4357L6.46387 25.9161L6.20532 25.3315L6.0114 24.747L5.81748 24.1624L5.62356 23.5778L5.49428 22.9932L5.365 22.3437L5.30036 21.6942L5.23572 21.0446L5.17108 20.3951V20.2652C5.88212 19.291 6.98099 18.9012 8.27374 18.9662ZM71.8135 34.6847L75.8212 24.3572L66.2549 34.6847H71.8135ZM73.4297 44.6224H75.7567C75.886 44.6224 75.9505 44.6224 76.0153 44.6876C76.0798 44.7524 76.0797 44.8172 76.0797 44.8824C76.0797 45.012 76.0798 45.0772 76.0153 45.0772C75.9505 45.142 75.886 45.142 75.7567 45.142H73.4297V44.6224ZM72.1369 43.5832V47.87H76.1446C76.5969 47.87 76.9847 47.8052 77.1788 47.6104C77.3725 47.4156 77.5018 47.0908 77.5018 46.7008C77.5018 46.1812 77.3081 45.8564 76.9203 45.6616C77.0495 45.5968 77.1788 45.5316 77.2433 45.3368C77.3081 45.2072 77.3725 45.012 77.3725 44.7524C77.3725 44.2328 77.2433 43.908 76.9203 43.7132C76.7261 43.5832 76.4031 43.5184 76.0153 43.5184H72.1369V43.5832ZM73.4297 46.1812H75.6919C75.8212 46.1812 75.886 46.1812 75.9505 46.2464C76.0153 46.3112 76.0797 46.376 76.0797 46.506C76.0797 46.7008 75.9505 46.8308 75.6919 46.8308H73.4297V46.1812ZM68.0644 47.9352V43.648H69.3572V47.9352H68.0644ZM64.9621 43.5832V47.87H63.6694V44.6876H61.3423C61.3423 45.9216 61.213 46.766 61.0189 47.2856C60.8252 47.6752 60.5018 47.9352 60.0495 47.9352H59.4031V46.8308C59.7261 46.8308 59.9203 46.7008 59.9203 46.4412C59.9847 46.1812 59.9847 45.272 59.9847 43.648H64.9621V43.5832ZM51.1937 47.9352V43.648H56.1063V44.6876H52.4865V45.272H55.1369C55.5892 45.272 55.9126 45.402 56.1712 45.5968C56.3649 45.7916 56.4942 46.1164 56.4942 46.5712C56.4942 47.0908 56.3649 47.4804 56.1063 47.6752C55.9126 47.87 55.5892 47.9352 55.1369 47.9352H51.1937ZM52.5513 46.1812V46.8308H54.8135C55.0721 46.8308 55.2014 46.7008 55.2014 46.506C55.2014 46.376 55.2014 46.2464 55.1369 46.2464C55.0721 46.1812 55.0077 46.1812 54.8784 46.1812H52.5513ZM43.5018 47.9352V43.648H48.0914V44.6876H44.7946V45.272H47.9621V46.3112H44.7946V46.896H48.0914V47.9352H43.5018ZM33.4182 43.648V47.9352H34.711V44.9472C34.711 44.8824 34.711 44.8824 34.711 44.8172C34.711 44.6876 34.6464 44.6224 34.6464 44.6224C34.6464 44.6224 34.6464 44.5576 34.711 44.5576C34.711 44.5576 34.7756 44.5576 34.7756 44.6224C34.7756 44.6876 34.8403 44.6876 34.8403 44.7524L36.4563 47.9352H37.5551L39.1065 44.7524C39.1065 44.6876 39.1711 44.6876 39.1711 44.6224C39.1711 44.5576 39.2357 44.5576 39.2357 44.5576C39.2357 44.5576 39.3003 44.5576 39.3003 44.6224C39.3003 44.6224 39.3003 44.6876 39.3003 44.7524C39.3003 44.8172 39.3003 44.8824 39.3003 44.9472V47.9352H40.5932V43.648H38.3308L37.2319 46.0516C37.2319 46.1812 37.1673 46.3112 37.1673 46.4412C37.1673 46.506 37.1673 46.5712 37.1027 46.5712C37.1027 46.5712 37.038 46.506 37.038 46.3112C37.038 46.1812 36.9733 46.0516 36.9733 46.0516L35.8745 43.648H33.4182ZM22.365 44.7524V43.648H27.4715V44.7524H25.5969V47.9352H24.3041V44.7524H22.365ZM18.3574 47.9352V43.648H19.6502V47.9352H18.3574ZM11.5057 44.6224H13.8327C13.9619 44.6224 14.0266 44.6224 14.0913 44.6876C14.1559 44.7524 14.1559 44.8172 14.1559 44.8824C14.1559 45.012 14.1559 45.0772 14.0913 45.0772C14.0266 45.142 13.9619 45.142 13.8327 45.142H11.5057V44.6224ZM10.2129 43.5832V47.87H14.2205C14.673 47.87 15.0608 47.8052 15.2547 47.6104C15.4487 47.4156 15.5779 47.0908 15.5779 46.7008C15.5779 46.1812 15.384 45.8564 14.9962 45.6616C15.1255 45.5968 15.2547 45.5316 15.3194 45.3368C15.384 45.2072 15.4487 45.012 15.4487 44.7524C15.4487 44.2328 15.3194 43.908 15.0608 43.7132C14.8669 43.5832 14.5437 43.5184 14.1559 43.5184H10.2129V43.5832ZM11.5057 46.1812H13.7681C13.8973 46.1812 13.9619 46.1812 14.0266 46.2464C14.0912 46.3112 14.1559 46.376 14.1559 46.506C14.1559 46.7008 14.0266 46.8308 13.7681 46.8308H11.5057V46.1812ZM4.71861 43.5184C5.94676 43.5184 6.72243 43.648 6.98099 43.8432C7.23955 44.038 7.36879 44.4924 7.36879 45.272H6.07604C6.07604 45.012 6.0114 44.8824 5.88212 44.8172C5.6882 44.7524 5.365 44.6876 4.78325 44.6876C4.13685 44.6876 3.74903 44.7524 3.61975 44.8172C3.49048 44.9472 3.42585 45.2072 3.42585 45.7916C3.42585 46.3112 3.49048 46.636 3.61975 46.766C3.74903 46.896 4.13685 46.896 4.78325 46.896C5.365 46.896 5.75284 46.8308 5.88212 46.766C6.0114 46.7008 6.07604 46.506 6.07604 46.2464H7.36879C7.36879 47.0256 7.23955 47.4804 6.98099 47.6752C6.72243 47.87 5.94676 48 4.71861 48C3.49049 48 2.71482 47.87 2.45627 47.6752C2.19771 47.4804 2.06841 46.8308 2.06841 45.7916C2.06841 44.7524 2.19771 44.168 2.45627 43.908C2.77946 43.648 3.49049 43.5184 4.71861 43.5184ZM85 3.24763V3.5724L84.9356 3.89716L84.8707 4.22192L84.7414 4.48172L84.6122 4.74152L84.4829 5.00136L84.2892 5.26116L84.095 5.52096L83.8365 5.71584L83.5779 5.91068L83.3194 6.0406L83.0608 6.17052L82.8023 6.3004L82.4793 6.36536L82.1559 6.43032H81.8329H81.5095L81.1865 6.36536L80.8631 6.3004L80.6045 6.17052L80.346 6.0406L80.0874 5.91068L79.8288 5.71584L79.5703 5.52096L79.3766 5.26116L79.1824 5.00136L79.0532 4.74152L78.9239 4.48172L78.7946 4.22192L78.7302 3.89716L78.6653 3.5724V3.24763V2.92287L78.7302 2.5981L78.7946 2.27334L78.9239 2.01354L79.0532 1.75373L79.1824 1.4939L79.3766 1.2341L79.5703 0.974288L79.8288 0.77944L80.0874 0.584568L80.346 0.454676L80.6045 0.324763L80.8631 0.19485L81.1865 0.129913L81.5095 0.0649568H81.8329H82.1559L82.4793 0.129913L82.8023 0.19485L83.0608 0.324763L83.3194 0.454676L83.5779 0.584568L83.8365 0.77944L84.095 0.974288L84.2892 1.2341L84.4829 1.4939L84.6122 1.75373L84.7414 2.01354L84.8707 2.27334L84.9356 2.5981L85 2.92287V3.24763ZM84.4829 3.24763V2.98782L84.418 2.72802L84.3536 2.46819L84.2892 2.20839L84.1595 2.01354L84.0306 1.81867L83.9009 1.62382L83.7072 1.42897L83.5131 1.2341L83.3194 1.1042L83.1257 0.974288L82.9315 0.844376L82.673 0.77944L82.4144 0.714484L82.1559 0.649528H81.8973H81.6387L81.3802 0.714484L81.1216 0.77944L80.8631 0.844376L80.6693 0.974288L80.4752 1.1042L80.2815 1.2341L80.0874 1.42897L79.8937 1.62382L79.7644 1.81867L79.6351 2.01354L79.5058 2.20839L79.441 2.46819L79.3766 2.72802L79.3117 2.98782V3.24763V3.50744L79.3766 3.76724L79.441 4.02708L79.5058 4.28688L79.6351 4.48172L79.7644 4.6766L79.8937 4.87144L80.0874 5.06628L80.2815 5.26116L80.4752 5.39108L80.6693 5.52096L80.8631 5.65088L81.1216 5.71584L81.3802 5.7808L81.6387 5.84572H81.8973H82.1559L82.4144 5.7808L82.673 5.71584L82.9315 5.65088L83.1257 5.52096L83.3194 5.39108L83.5131 5.26116L83.7072 5.06628L83.9009 4.87144L84.0306 4.6766L84.1595 4.48172L84.2892 4.28688L84.3536 4.02708L84.418 3.76724L84.4829 3.50744V3.24763ZM83.3194 1.94858L83.3842 2.01354L83.4487 2.07849V2.14343V2.27334V2.40326V2.53315V2.66306V2.79296L83.3842 2.85791L83.3194 2.92287L83.2545 2.98782L83.1901 3.05278L83.1257 3.11772L83.0608 3.18268L82.9964 3.24763L82.9315 3.31259L82.8667 3.37754H82.8023H82.7378V3.44248V3.50744L82.8023 3.5724L82.8667 3.63735L82.9315 3.70231L82.9964 3.76724L83.0608 3.8322L83.1257 3.89716L83.1901 3.96212L83.2545 4.02708V4.092V4.15696V4.22192V4.28688L83.6428 5.06628H82.8667L82.5437 4.48172L82.4793 4.35184L82.4144 4.22192L82.35 4.092L82.2851 3.96212L82.2207 3.89716L82.1559 3.8322L82.0914 3.76724H82.0266H81.9617H81.8973H81.8329H81.768H81.7036H81.6387H81.5743H81.445H81.2509V5.1962H80.6045V1.75373H81.9617H82.1559H82.2851H82.4144H82.5437L82.673 1.81867L82.8023 1.88362L82.9315 1.94858L82.9964 2.01354L83.0608 2.07849L83.1257 2.14343L83.3194 1.94858ZM81.3153 1.94858V2.85791H81.6387H81.768H81.8973H82.0266H82.1559H82.2851H82.35H82.4144H82.4793V2.79296V2.72802V2.66306V2.5981V2.53315V2.46819V2.40326V2.3383H82.4144H82.35H82.2851H82.2207H82.0914H81.9617H81.8329H81.6387H81.3153V1.94858Z" fill="white"/>
</g>
<defs>
<clipPath id="clip0_609_6265">
<rect width="85" height="48" fill="white"/>
</clipPath>
</defs>
</svg>
